<?xml version="1.0" encoding="UTF-8"?>
<!DOCTYPE svg PUBLIC "-//W3C//DTD SVG 1.1//EN" "http://www.w3.org/Graphics/SVG/1.1/DTD/svg11.dtd">
<svg xmlns="http://www.w3.org/2000/svg" version="1.1" width="512px" height="512px" style="shape-rendering:geometricPrecision; text-rendering:geometricPrecision; image-rendering:optimizeQuality; fill-rule:evenodd; clip-rule:evenodd" xmlns:xlink="http://www.w3.org/1999/xlink">
<g><path style="opacity:0.086" fill="#9c9c9c" d="M 454.5,106.5 C 315.313,107.173 175.98,107.84 36.5,108.5C 36.6107,107.883 36.944,107.383 37.5,107C 150.002,106.769 262.502,106.269 375,105.5C 401.497,106.107 427.997,106.44 454.5,106.5 Z"/></g>
<g><path style="opacity:0.996" fill="#f1f1f1" d="M 454.5,106.5 C 458.846,106.334 463.179,106.501 467.5,107C 470.394,109.909 471.227,113.409 470,117.5C 468.745,118.211 467.579,119.044 466.5,120C 322.831,120.461 179.164,119.961 35.5,118.5C 32.5789,114.722 32.9122,111.389 36.5,108.5C 175.98,107.84 315.313,107.173 454.5,106.5 Z"/></g>
<g><path style="opacity:0.973" fill="#f5f5f5" d="M 103.5,150.5 C 103.369,151.376 103.702,152.043 104.5,152.5C 105.687,153.653 106.687,153.653 107.5,152.5C 117.652,156.406 126.652,162.072 134.5,169.5C 135.757,172.427 137.757,174.761 140.5,176.5C 156.659,193.499 165.826,213.832 168,237.5C 171.513,280.626 156.346,315.46 122.5,342C 110.963,350.268 98.2961,356.102 84.5,359.5C 77.4376,358.214 75.6043,354.214 79,347.5C 80.3297,346.418 81.8297,345.751 83.5,345.5C 106.887,340.021 125.387,327.021 139,306.5C 145.295,296.105 150.128,285.105 153.5,273.5C 153.457,272.584 153.124,271.917 152.5,271.5C 152.5,270.833 152.5,270.167 152.5,269.5C 154.825,268.345 155.992,266.345 156,263.5C 156.167,260.167 156.333,256.833 156.5,253.5C 156.486,249.761 155.82,246.428 154.5,243.5C 153.833,238.5 153.167,233.5 152.5,228.5C 153.139,227.903 153.472,227.07 153.5,226C 152.204,220.651 150.37,215.484 148,210.5C 147.329,209.748 146.496,209.414 145.5,209.5C 145.5,209.167 145.5,208.833 145.5,208.5C 146.465,207.279 146.298,205.946 145,204.5C 138.077,191.745 128.577,181.412 116.5,173.5C 108.589,168.712 100.256,164.712 91.5,161.5C 86.4206,158.15 80.7539,156.817 74.5,157.5C 73.5,157.5 72.5,157.5 71.5,157.5C 63.0161,156.507 54.3494,156.174 45.5,156.5C 45.1685,187.005 45.5019,217.338 46.5,247.5C 46.6667,284.168 46.5,320.835 46,357.5C 42.1375,362.763 38.1375,362.763 34,357.5C 33.5006,352.177 33.334,346.844 33.5,341.5C 34.8333,301.167 34.8333,260.833 33.5,220.5C 33.0284,195.435 33.5284,170.435 35,145.5C 35.5,145 36,144.5 36.5,144C 50.1667,143.333 63.8333,143.333 77.5,144C 86.508,144.919 95.1747,147.085 103.5,150.5 Z"/></g>
<g><path style="opacity:0.964" fill="#f0f0ef" d="M 181.5,143.5 C 207.204,143.057 232.871,143.557 258.5,145C 285.373,153.54 301.206,171.707 306,199.5C 308.748,224.363 300.914,245.196 282.5,262C 273.474,269.343 263.141,273.677 251.5,275C 229.833,275.667 208.167,275.667 186.5,275C 183.966,274.484 181.8,273.317 180,271.5C 178.356,229.88 178.022,188.213 179,146.5C 180.045,145.627 180.878,144.627 181.5,143.5 Z M 269.5,165.5 C 278.806,173.134 285.806,182.468 290.5,193.5C 290.5,194.167 290.5,194.833 290.5,195.5C 290.875,197.698 291.542,199.698 292.5,201.5C 292.5,202.167 292.5,202.833 292.5,203.5C 293.057,216.945 289.723,229.278 282.5,240.5C 281.833,240.5 281.5,240.833 281.5,241.5C 271.353,254.574 258.02,261.24 241.5,261.5C 225.167,261.5 208.833,261.5 192.5,261.5C 192.829,226.927 192.496,192.427 191.5,158C 210.833,157.333 230.167,157.333 249.5,158C 256.497,159.667 263.164,162.167 269.5,165.5 Z M 248.5,180.5 C 251.515,182.674 254.849,184.341 258.5,185.5C 274.787,201.512 274.454,217.345 257.5,233C 255.273,233.941 253.273,235.108 251.5,236.5C 239.204,237.44 226.871,237.773 214.5,237.5C 214.5,218.5 214.5,199.5 214.5,180.5C 225.833,180.5 237.167,180.5 248.5,180.5 Z"/></g>
<g><path style="opacity:0.995" fill="#eeeeed" d="M 368.5,215.5 C 368.938,215.565 369.272,215.399 369.5,215C 364.779,205.723 359.946,196.556 355,187.5C 354.329,186.748 353.496,186.414 352.5,186.5C 352.5,186.167 352.5,185.833 352.5,185.5C 352.938,185.565 353.272,185.399 353.5,185C 349.461,177.087 345.294,169.254 341,161.5C 340.184,160.177 339.017,159.511 337.5,159.5C 335.123,155.856 334.289,151.856 335,147.5C 339.333,143.5 343.667,143.5 348,147.5C 358.114,166.062 367.947,184.729 377.5,203.5C 377.427,205.027 378.094,206.027 379.5,206.5C 383.751,214.001 387.751,221.668 391.5,229.5C 391.498,231.831 392.331,233.831 394,235.5C 396.587,232.587 398.754,229.42 400.5,226C 399.906,225.536 399.239,225.369 398.5,225.5C 398.5,224.833 398.833,224.5 399.5,224.5C 400.496,224.586 401.329,224.252 402,223.5C 409.913,209.454 417.08,195.121 423.5,180.5C 423.992,178.181 424.992,176.181 426.5,174.5C 428.074,174.063 429.241,173.063 430,171.5C 434.181,164.488 437.681,157.154 440.5,149.5C 442.221,143.973 445.888,142.14 451.5,144C 455.175,146.493 456.008,149.659 454,153.5C 436.468,186.736 418.301,219.569 399.5,252C 394.886,254.402 390.719,253.902 387,250.5C 380.263,239.022 374.097,227.355 368.5,215.5 Z"/></g>
<g><path style="opacity:0.125" fill="#6c6c6b" d="M 103.5,150.5 C 105.153,150.66 106.486,151.326 107.5,152.5C 106.687,153.653 105.687,153.653 104.5,152.5C 103.702,152.043 103.369,151.376 103.5,150.5 Z"/></g>
<g><path style="opacity:0.212" fill="#747474" d="M 74.5,157.5 C 80.7539,156.817 86.4206,158.15 91.5,161.5C 85.7215,160.148 80.0549,158.815 74.5,157.5 Z"/></g>
<g><path style="opacity:0.996" fill="#f5f5f5" d="M 342.5,184.5 C 342.427,186.027 343.094,187.027 344.5,187.5C 355.099,207.033 365.433,226.699 375.5,246.5C 375.427,248.027 376.094,249.027 377.5,249.5C 381.751,257.001 385.751,264.668 389.5,272.5C 389.377,275.588 390.377,278.255 392.5,280.5C 396.235,277.887 398.901,274.387 400.5,270C 399.906,269.536 399.239,269.369 398.5,269.5C 398.5,268.833 398.833,268.5 399.5,268.5C 400.496,268.586 401.329,268.252 402,267.5C 403.833,264.333 405.667,261.167 407.5,258C 406.906,257.536 406.239,257.369 405.5,257.5C 405.5,256.833 405.833,256.5 406.5,256.5C 407.496,256.586 408.329,256.252 409,255.5C 425.348,226.135 441.681,196.801 458,167.5C 458.977,165.26 459.477,162.927 459.5,160.5C 464.663,157.045 468.163,158.379 470,164.5C 470.833,229.169 470.667,293.836 469.5,358.5C 468.817,358.863 468.15,359.196 467.5,359.5C 463.885,359.845 460.552,359.178 457.5,357.5C 457.675,355.379 457.341,353.379 456.5,351.5C 458.494,312.848 459.161,273.848 458.5,234.5C 458.833,220.817 458.499,207.15 457.5,193.5C 456.05,194.85 455.383,196.516 455.5,198.5C 437.078,232.509 417.744,266.009 397.5,299C 393.683,300.023 390.183,299.523 387,297.5C 382.361,290.554 378.528,283.221 375.5,275.5C 371.967,266.089 367.467,256.755 362,247.5C 361.329,246.748 360.496,246.414 359.5,246.5C 356.308,241.45 353.642,236.117 351.5,230.5C 349.568,224.631 347.068,218.964 344,213.5C 343.329,212.748 342.496,212.414 341.5,212.5C 341.611,211.883 341.944,211.383 342.5,211C 339.72,205.234 336.554,199.734 333,194.5C 332.17,221.336 332.336,248.003 333.5,274.5C 333.667,301.502 333.5,328.502 333,355.5C 332.8,357.32 331.966,358.653 330.5,359.5C 327.398,359.846 324.565,359.179 322,357.5C 321.83,292.43 321.33,227.43 320.5,162.5C 321.828,158.746 324.494,157.579 328.5,159C 333.826,167.153 338.493,175.653 342.5,184.5 Z"/></g>
<g><path style="opacity:0.082" fill="#8c8c8c" d="M 337.5,159.5 C 339.017,159.511 340.184,160.177 341,161.5C 345.294,169.254 349.461,177.087 353.5,185C 353.272,185.399 352.938,185.565 352.5,185.5C 347.134,177.096 342.134,168.429 337.5,159.5 Z"/></g>
<g><path style="opacity:0.994" fill="#f4f4f4" d="M 205.5,166.5 C 207.5,166.5 209.5,166.5 211.5,166.5C 221.833,167.833 232.167,167.833 242.5,166.5C 268.312,168.645 282.646,182.645 285.5,208.5C 283.723,228.771 273.389,242.604 254.5,250C 238.212,251.59 221.879,251.923 205.5,251C 202.307,249.974 200.974,247.808 201.5,244.5C 202.332,220.67 202.832,196.67 203,172.5C 203.655,170.372 204.489,168.372 205.5,166.5 Z M 248.5,180.5 C 251.515,182.674 254.849,184.341 258.5,185.5C 274.787,201.512 274.454,217.345 257.5,233C 255.273,233.941 253.273,235.108 251.5,236.5C 239.204,237.44 226.871,237.773 214.5,237.5C 214.5,218.5 214.5,199.5 214.5,180.5C 225.833,180.5 237.167,180.5 248.5,180.5 Z"/></g>
<g><path style="opacity:0.165" fill="#9c9c9c" d="M 242.5,166.5 C 232.167,167.833 221.833,167.833 211.5,166.5C 221.735,165.182 232.069,165.182 242.5,166.5 Z"/></g>
<g><path style="opacity:0.365" fill="#909190" d="M 440.5,149.5 C 437.681,157.154 434.181,164.488 430,171.5C 429.241,173.063 428.074,174.063 426.5,174.5C 430.929,165.97 435.595,157.637 440.5,149.5 Z"/></g>
<g><path style="opacity:0.995" fill="#f9f9f9" d="M 61.5,167.5 C 72.4085,167.338 83.0751,168.672 93.5,171.5C 93.5,172.5 93.5,173.5 93.5,174.5C 99.1341,175.231 104.301,177.231 109,180.5C 109.399,180.272 109.565,179.938 109.5,179.5C 126.371,189.06 137.371,203.227 142.5,222C 141.98,226.857 139.313,229.19 134.5,229C 131.591,227.594 129.591,225.428 128.5,222.5C 129.043,222.44 129.376,222.107 129.5,221.5C 128.333,219.167 127.167,216.833 126,214.5C 125.329,213.748 124.496,213.414 123.5,213.5C 122.4,212.395 121.733,211.062 121.5,209.5C 121.938,209.565 122.272,209.399 122.5,209C 118.271,203.27 113.271,198.436 107.5,194.5C 107.027,193.094 106.027,192.427 104.5,192.5C 104.027,191.094 103.027,190.427 101.5,190.5C 98.3777,189.439 95.3777,188.105 92.5,186.5C 88.657,183.88 84.3237,182.213 79.5,181.5C 76.0381,180.518 72.3714,180.185 68.5,180.5C 68.5,239.833 68.5,299.167 68.5,358.5C 68.1583,359.338 67.4916,359.672 66.5,359.5C 62.8849,359.845 59.5516,359.178 56.5,357.5C 56.5,356.833 56.5,356.167 56.5,355.5C 57.3329,294.335 57.8329,233.001 58,171.5C 60.0714,170.897 61.2381,169.564 61.5,167.5 Z"/></g>
<g><path style="opacity:0.008" fill="#666566" d="M 134.5,169.5 C 137.243,171.239 139.243,173.573 140.5,176.5C 137.757,174.761 135.757,172.427 134.5,169.5 Z"/></g>
<g><path style="opacity:0.025" fill="#ababab" d="M 61.5,167.5 C 61.2381,169.564 60.0714,170.897 58,171.5C 57.8329,233.001 57.3329,294.335 56.5,355.5C 55.3347,294.335 55.168,233.001 56,171.5C 57.4321,169.561 59.2654,168.228 61.5,167.5 Z"/></g>
<g><path style="opacity:0.392" fill="#959593" d="M 93.5,171.5 C 99.4304,173.132 104.764,175.798 109.5,179.5C 109.565,179.938 109.399,180.272 109,180.5C 104.301,177.231 99.1341,175.231 93.5,174.5C 93.5,173.5 93.5,172.5 93.5,171.5 Z"/></g>
<g><path style="opacity:0.733" fill="#676767" d="M 248.5,180.5 C 252.748,180.624 256.082,182.29 258.5,185.5C 254.849,184.341 251.515,182.674 248.5,180.5 Z"/></g>
<g><path style="opacity:0.165" fill="#616161" d="M 269.5,165.5 C 278.927,170.765 285.76,178.432 290,188.5C 290.494,190.134 290.66,191.801 290.5,193.5C 285.806,182.468 278.806,173.134 269.5,165.5 Z"/></g>
<g><path style="opacity:0.541" fill="#5a5a5a" d="M 74.5,181.5 C 76.1667,181.5 77.8333,181.5 79.5,181.5C 84.3237,182.213 88.657,183.88 92.5,186.5C 86.4772,184.497 80.4772,182.831 74.5,181.5 Z"/></g>
<g><path style="opacity:0.055" fill="#383838" d="M 342.5,184.5 C 343.906,184.973 344.573,185.973 344.5,187.5C 343.094,187.027 342.427,186.027 342.5,184.5 Z"/></g>
<g><path style="opacity:0.094" fill="#3c3c3c" d="M 101.5,190.5 C 103.027,190.427 104.027,191.094 104.5,192.5C 102.973,192.573 101.973,191.906 101.5,190.5 Z"/></g>
<g><path style="opacity:0.118" fill="#373737" d="M 104.5,192.5 C 106.027,192.427 107.027,193.094 107.5,194.5C 105.973,194.573 104.973,193.906 104.5,192.5 Z"/></g>
<g><path style="opacity:0.159" fill="#4e4e4d" d="M 116.5,173.5 C 128.577,181.412 138.077,191.745 145,204.5C 146.298,205.946 146.465,207.279 145.5,208.5C 141.589,202.072 137.423,195.738 133,189.5C 127.605,183.936 122.105,178.603 116.5,173.5 Z"/></g>
<g><path style="opacity:0.227" fill="#3d3d3d" d="M 107.5,194.5 C 113.271,198.436 118.271,203.27 122.5,209C 122.272,209.399 121.938,209.565 121.5,209.5C 116.861,204.526 112.195,199.526 107.5,194.5 Z"/></g>
<g><path style="opacity:0.231" fill="#989898" d="M 459.5,160.5 C 459.477,162.927 458.977,165.26 458,167.5C 441.681,196.801 425.348,226.135 409,255.5C 408.329,256.252 407.496,256.586 406.5,256.5C 424.208,224.475 441.875,192.475 459.5,160.5 Z"/></g>
<g><path style="opacity:0.318" fill="#717171" d="M 290.5,195.5 C 291.497,195.47 292.164,195.97 292.5,197C 293.608,198.677 293.608,200.177 292.5,201.5C 291.542,199.698 290.875,197.698 290.5,195.5 Z"/></g>
<g><path style="opacity:0.31" fill="#989898" d="M 352.5,186.5 C 353.496,186.414 354.329,186.748 355,187.5C 359.946,196.556 364.779,205.723 369.5,215C 369.272,215.399 368.938,215.565 368.5,215.5C 362.914,205.997 357.581,196.331 352.5,186.5 Z"/></g>
<g><path style="opacity:0.047" fill="#383838" d="M 377.5,203.5 C 378.906,203.973 379.573,204.973 379.5,206.5C 378.094,206.027 377.427,205.027 377.5,203.5 Z"/></g>
<g><path style="opacity:0.216" fill="#8a8a8a" d="M 423.5,180.5 C 417.08,195.121 409.913,209.454 402,223.5C 401.329,224.252 400.496,224.586 399.5,224.5C 406.995,209.505 414.995,194.839 423.5,180.5 Z"/></g>
<g><path style="opacity:0.075" fill="#787978" d="M 258.5,185.5 C 263.761,187.592 267.594,191.259 270,196.5C 275.474,215.621 269.308,229.288 251.5,237.5C 251.5,237.167 251.5,236.833 251.5,236.5C 253.273,235.108 255.273,233.941 257.5,233C 274.454,217.345 274.787,201.512 258.5,185.5 Z"/></g>
<g><path style="opacity:0.024" fill="#777777" d="M 145.5,209.5 C 146.496,209.414 147.329,209.748 148,210.5C 150.37,215.484 152.204,220.651 153.5,226C 153.472,227.07 153.139,227.903 152.5,228.5C 150.388,222.171 148.054,215.838 145.5,209.5 Z"/></g>
<g><path style="opacity:0.655" fill="#979797" d="M 341.5,212.5 C 342.496,212.414 343.329,212.748 344,213.5C 347.068,218.964 349.568,224.631 351.5,230.5C 347.675,224.857 344.342,218.857 341.5,212.5 Z"/></g>
<g><path style="opacity:0.627" fill="#787877" d="M 123.5,213.5 C 124.496,213.414 125.329,213.748 126,214.5C 127.167,216.833 128.333,219.167 129.5,221.5C 129.376,222.107 129.043,222.44 128.5,222.5C 126.595,219.696 124.929,216.696 123.5,213.5 Z"/></g>
<g><path style="opacity:0.459" fill="#828282" d="M 292.5,203.5 C 293.117,203.611 293.617,203.944 294,204.5C 294.809,217.115 291.809,228.782 285,239.5C 284.329,240.252 283.496,240.586 282.5,240.5C 289.723,229.278 293.057,216.945 292.5,203.5 Z"/></g>
<g><path style="opacity:0.42" fill="#8d8d8d" d="M 341.5,212.5 C 338.774,208.054 336.274,203.387 334,198.5C 333.5,223.831 333.333,249.164 333.5,274.5C 332.336,248.003 332.17,221.336 333,194.5C 336.554,199.734 339.72,205.234 342.5,211C 341.944,211.383 341.611,211.883 341.5,212.5 Z"/></g>
<g><path style="opacity:0.683" fill="#979797" d="M 458.5,234.5 C 457.833,247.5 457.167,260.5 456.5,273.5C 456.693,248.489 456.36,223.489 455.5,198.5C 455.383,196.516 456.05,194.85 457.5,193.5C 458.499,207.15 458.833,220.817 458.5,234.5 Z"/></g>
<g><path style="opacity:0.578" fill="#8b8b8b" d="M 71.5,157.5 C 63.5,157.5 55.5,157.5 47.5,157.5C 47.802,187.525 47.4687,217.525 46.5,247.5C 45.5019,217.338 45.1685,187.005 45.5,156.5C 54.3494,156.174 63.0161,156.507 71.5,157.5 Z"/></g>
<g><path style="opacity:0.303" fill="#868686" d="M 205.5,166.5 C 204.489,168.372 203.655,170.372 203,172.5C 202.832,196.67 202.332,220.67 201.5,244.5C 200.337,221.004 200.17,197.337 201,173.5C 201.11,170.232 202.61,167.899 205.5,166.5 Z"/></g>
<g><path style="opacity:0.063" fill="#5f5f5f" d="M 398.5,225.5 C 399.239,225.369 399.906,225.536 400.5,226C 398.754,229.42 396.587,232.587 394,235.5C 392.331,233.831 391.498,231.831 391.5,229.5C 392.315,230.429 393.148,231.429 394,232.5C 395.723,230.283 397.223,227.95 398.5,225.5 Z"/></g>
<g><path style="opacity:0.579" fill="#acacac" d="M 251.5,236.5 C 251.5,236.833 251.5,237.167 251.5,237.5C 246.345,239.054 241.012,239.72 235.5,239.5C 228.281,239.582 221.281,238.915 214.5,237.5C 226.871,237.773 239.204,237.44 251.5,236.5 Z"/></g>
<g><path style="opacity:0.464" fill="#cccccc" d="M 458.5,234.5 C 459.161,273.848 458.494,312.848 456.5,351.5C 456.5,325.5 456.5,299.5 456.5,273.5C 457.167,260.5 457.833,247.5 458.5,234.5 Z"/></g>
<g><path style="opacity:0.055" fill="#3e3e3e" d="M 375.5,246.5 C 376.906,246.973 377.573,247.973 377.5,249.5C 376.094,249.027 375.427,248.027 375.5,246.5 Z"/></g>
<g><path style="opacity:0.991" fill="#efefef" d="M 87.5,318.5 C 89.7705,319.054 92.1038,318.554 94.5,317C 96.0009,315.748 97.6675,314.748 99.5,314C 100.823,313.184 101.489,312.017 101.5,310.5C 103.783,310.392 105.783,309.559 107.5,308C 122.446,293.97 130.779,276.803 132.5,256.5C 134.549,249.547 138.382,248.214 144,252.5C 144.403,285.134 130.57,309.968 102.5,327C 95.7514,331.388 88.4181,333.388 80.5,333C 75.0587,324.71 77.3921,319.877 87.5,318.5 Z"/></g>
<g><path style="opacity:0.192" fill="#7e7e7e" d="M 281.5,241.5 C 282.043,241.56 282.376,241.893 282.5,242.5C 272.449,256.693 258.782,263.026 241.5,261.5C 258.02,261.24 271.353,254.574 281.5,241.5 Z"/></g>
<g><path style="opacity:0.459" fill="#a3a3a2" d="M 359.5,246.5 C 360.496,246.414 361.329,246.748 362,247.5C 367.467,256.755 371.967,266.089 375.5,275.5C 369.914,265.997 364.581,256.331 359.5,246.5 Z"/></g>
<g><path style="opacity:0.898" fill="#f1f1f1" d="M 348.5,255.5 C 353.613,255.132 356.446,257.466 357,262.5C 357.667,294.167 357.667,325.833 357,357.5C 353.832,361.533 349.999,362.367 345.5,360C 344.773,358.601 344.273,357.101 344,355.5C 343.333,323.167 343.333,290.833 344,258.5C 345.409,257.219 346.909,256.219 348.5,255.5 Z"/></g>
<g><path style="opacity:0.039" fill="#a5a5a5" d="M 154.5,243.5 C 155.82,246.428 156.486,249.761 156.5,253.5C 156.333,256.833 156.167,260.167 156,263.5C 155.992,266.345 154.825,268.345 152.5,269.5C 154.142,260.934 154.808,252.267 154.5,243.5 Z"/></g>
<g><path style="opacity:0.991" fill="#f8f8f8" d="M 440.5,255.5 C 442.917,255.978 445.084,256.978 447,258.5C 447.667,280.833 447.667,303.167 447,325.5C 443.045,329.489 439.045,329.489 435,325.5C 434.333,303.5 434.333,281.5 435,259.5C 435.374,258.584 435.874,257.75 436.5,257C 438.058,256.79 439.391,256.29 440.5,255.5 Z"/></g>
<g><path style="opacity:0.302" fill="#898989" d="M 405.5,257.5 C 406.239,257.369 406.906,257.536 407.5,258C 405.667,261.167 403.833,264.333 402,267.5C 401.329,268.252 400.496,268.586 399.5,268.5C 401.234,264.7 403.234,261.034 405.5,257.5 Z"/></g>
<g><path style="opacity:0.243" fill="#a8a8a8" d="M 79.5,181.5 C 77.8333,181.5 76.1667,181.5 74.5,181.5C 73.1667,181.5 71.8333,181.5 70.5,181.5C 70.1742,240.668 69.5076,299.668 68.5,358.5C 68.5,299.167 68.5,239.833 68.5,180.5C 72.3714,180.185 76.0381,180.518 79.5,181.5 Z"/></g>
<g><path style="opacity:0.584" fill="#767675" d="M 132.5,256.5 C 130.779,276.803 122.446,293.97 107.5,308C 105.783,309.559 103.783,310.392 101.5,310.5C 118.552,296.401 128.885,278.401 132.5,256.5 Z"/></g>
<g><path style="opacity:0.639" fill="#a09fa0" d="M 398.5,269.5 C 399.239,269.369 399.906,269.536 400.5,270C 398.901,274.387 396.235,277.887 392.5,280.5C 390.377,278.255 389.377,275.588 389.5,272.5C 390.892,274.273 392.059,276.273 393,278.5C 395.347,275.806 397.18,272.806 398.5,269.5 Z"/></g>
<g><path style="opacity:0.451" fill="#c9c9c9" d="M 320.5,162.5 C 321.33,227.43 321.83,292.43 322,357.5C 324.565,359.179 327.398,359.846 330.5,359.5C 329.688,360.993 328.355,361.66 326.5,361.5C 324.029,361.205 321.863,360.205 320,358.5C 319.168,292.999 319.335,227.665 320.5,162.5 Z"/></g>
<g><path style="opacity:0.996" fill="#eeeeee" d="M 261.5,339.5 C 262.043,339.44 262.376,339.107 262.5,338.5C 255,323.5 247.5,308.5 240,293.5C 239.329,292.748 238.496,292.414 237.5,292.5C 233.778,287.906 233.778,283.406 237.5,279C 240.167,278.333 242.833,278.333 245.5,279C 259.164,302.492 271.664,326.658 283,351.5C 283.86,358.64 280.694,361.806 273.5,361C 268.842,354.182 264.842,347.016 261.5,339.5 Z"/></g>
<g><path style="opacity:0.991" fill="#eeeeee" d="M 285.5,337.5 C 286.043,337.44 286.376,337.107 286.5,336.5C 281.667,326.833 276.833,317.167 272,307.5C 271.329,306.748 270.496,306.414 269.5,306.5C 266.741,301.313 264.241,295.98 262,290.5C 259.997,282.841 262.83,279.674 270.5,281C 271.5,281.833 272.5,282.667 273.5,283.5C 286.557,306.947 298.557,330.947 309.5,355.5C 307.754,361.026 304.088,362.859 298.5,361C 293.107,353.769 288.774,345.935 285.5,337.5 Z"/></g>
<g><path style="opacity:0.11" fill="#7c7b7c" d="M 152.5,271.5 C 153.124,271.917 153.457,272.584 153.5,273.5C 150.128,285.105 145.295,296.105 139,306.5C 125.387,327.021 106.887,340.021 83.5,345.5C 119.614,333.053 142.614,308.386 152.5,271.5 Z"/></g>
<g><path style="opacity:0.978" fill="#f7f7f7" d="M 211.5,359.5 C 207.885,359.845 204.552,359.178 201.5,357.5C 201.5,356.833 201.5,356.167 201.5,355.5C 202.187,333.294 202.854,310.961 203.5,288.5C 207.803,285.329 211.303,285.996 214,290.5C 214.667,313.167 214.667,335.833 214,358.5C 213.329,359.252 212.496,359.586 211.5,359.5 Z"/></g>
<g><path style="opacity:0.993" fill="#f9f9f9" d="M 189.5,286.5 C 190.48,310.455 190.814,334.455 190.5,358.5C 190.389,359.117 190.056,359.617 189.5,360C 185.409,361.227 181.909,360.394 179,357.5C 178.167,334.16 178.334,310.826 179.5,287.5C 182.607,284.118 185.94,283.785 189.5,286.5 Z"/></g>
<g><path style="opacity:0.273" fill="#9b9b9a" d="M 237.5,292.5 C 238.496,292.414 239.329,292.748 240,293.5C 247.5,308.5 255,323.5 262.5,338.5C 262.376,339.107 262.043,339.44 261.5,339.5C 253.261,324.024 245.261,308.357 237.5,292.5 Z"/></g>
<g><path style="opacity:0.586" fill="#999999" d="M 189.5,286.5 C 190.117,286.611 190.617,286.944 191,287.5C 193.157,311.342 192.99,335.009 190.5,358.5C 190.814,334.455 190.48,310.455 189.5,286.5 Z"/></g>
<g><path style="opacity:0.125" fill="#4d4d4d" d="M 33.5,220.5 C 34.8333,260.833 34.8333,301.167 33.5,341.5C 32.2132,301.173 32.2132,260.839 33.5,220.5 Z"/></g>
<g><path style="opacity:0.027" fill="#777777" d="M 203.5,288.5 C 202.854,310.961 202.187,333.294 201.5,355.5C 200.337,334.004 200.171,312.337 201,290.5C 201.708,289.619 202.542,288.953 203.5,288.5 Z"/></g>
<g><path style="opacity:0.62" fill="#afafaf" d="M 269.5,306.5 C 270.496,306.414 271.329,306.748 272,307.5C 276.833,317.167 281.667,326.833 286.5,336.5C 286.376,337.107 286.043,337.44 285.5,337.5C 279.928,327.358 274.595,317.025 269.5,306.5 Z"/></g>
<g><path style="opacity:0.51" fill="#7c7c7c" d="M 101.5,310.5 C 101.489,312.017 100.823,313.184 99.5,314C 97.6675,314.748 96.0009,315.748 94.5,317C 92.1038,318.554 89.7705,319.054 87.5,318.5C 92.1314,315.849 96.7981,313.182 101.5,310.5 Z"/></g>
<g><path style="opacity:0.954" fill="#e5e5e5" d="M 437.5,345.5 C 446.328,344.839 449.495,348.839 447,357.5C 442.295,362.964 437.962,362.631 434,356.5C 432.663,351.916 433.829,348.249 437.5,345.5 Z"/></g>
<g><path style="opacity:0.725" fill="#737373" d="M 56.5,357.5 C 59.5516,359.178 62.8849,359.845 66.5,359.5C 62.5905,362.36 59.2572,361.694 56.5,357.5 Z"/></g>
<g><path style="opacity:0.749" fill="#878787" d="M 201.5,357.5 C 204.552,359.178 207.885,359.845 211.5,359.5C 207.66,362.333 204.326,361.666 201.5,357.5 Z"/></g>
<g><path style="opacity:0.739" fill="#8e8e8e" d="M 457.5,357.5 C 460.552,359.178 463.885,359.845 467.5,359.5C 463.66,362.333 460.326,361.666 457.5,357.5 Z"/></g>
<g><path style="opacity:0.467" fill="#d7d8d7" d="M 466.5,389.5 C 323.334,390.5 180.001,390.833 36.5,390.5C 36.6107,389.883 36.944,389.383 37.5,389C 180.667,388.167 323.667,388.334 466.5,389.5 Z"/></g>
<g><path style="opacity:0.997" fill="#fdfdfd" d="M 466.5,389.5 C 469.85,389.651 471.516,391.485 471.5,395C 471.387,397.399 470.387,399.232 468.5,400.5C 326.846,401.489 185.179,401.822 43.5,401.5C 37.6355,403.045 34.3022,400.879 33.5,395C 33.5221,392.817 34.5221,391.317 36.5,390.5C 180.001,390.833 323.334,390.5 466.5,389.5 Z"/></g>
<g><path style="opacity:0.106" fill="#cecece" d="M 468.5,400.5 C 468.389,401.117 468.056,401.617 467.5,402C 325.999,402.833 184.666,402.666 43.5,401.5C 185.179,401.822 326.846,401.489 468.5,400.5 Z"/></g>
</svg>
